<svg width="31" height="16" viewBox="0 0 31 16" fill="none" xmlns="http://www.w3.org/2000/svg">
<path d="M8.412 3.708C8.412 3.892 8.36 4.072 8.256 4.248L3.9 11.664C3.748 11.92 3.544 12.048 3.288 12.048C3.12 12.048 2.972 11.984 2.844 11.856C2.716 11.728 2.652 11.564 2.652 11.364C2.652 11.18 2.716 10.976 2.844 10.752L5.712 5.856C5.288 6.016 4.864 6.104 4.44 6.12C4.288 6.608 4.032 7 3.672 7.296C3.32 7.584 2.924 7.728 2.484 7.728C2.084 7.728 1.74 7.632 1.452 7.44C1.164 7.24 0.948 6.98 0.804 6.66C0.66 6.34 0.588 5.996 0.588 5.628C0.588 5.116 0.684 4.664 0.876 4.272C1.076 3.872 1.344 3.56 1.68 3.336C2.016 3.112 2.392 3 2.808 3C3.32 3 3.732 3.18 4.044 3.54C4.356 3.892 4.536 4.324 4.584 4.836C5.12 4.804 5.612 4.672 6.06 4.44C6.516 4.2 6.86 3.896 7.092 3.528C7.308 3.176 7.548 3 7.812 3C7.98 3 8.12 3.068 8.232 3.204C8.352 3.34 8.412 3.508 8.412 3.708ZM2.604 6.648C2.772 6.648 2.924 6.576 3.06 6.432C3.196 6.288 3.292 6.076 3.348 5.796C3.172 5.636 3.036 5.44 2.94 5.208C2.844 4.968 2.796 4.732 2.796 4.5C2.796 4.372 2.808 4.236 2.832 4.092C2.816 4.084 2.784 4.08 2.736 4.08C2.496 4.08 2.296 4.204 2.136 4.452C1.984 4.692 1.908 5.052 1.908 5.532C1.908 5.9 1.972 6.18 2.1 6.372C2.236 6.556 2.404 6.648 2.604 6.648ZM8.664 7.32C9.08 7.32 9.432 7.42 9.72 7.62C10.008 7.812 10.224 8.068 10.368 8.388C10.512 8.708 10.584 9.052 10.584 9.42C10.584 9.924 10.484 10.376 10.284 10.776C10.092 11.176 9.824 11.488 9.48 11.712C9.144 11.936 8.768 12.048 8.352 12.048C7.936 12.048 7.584 11.952 7.296 11.76C7.016 11.56 6.804 11.3 6.66 10.98C6.516 10.66 6.444 10.316 6.444 9.948C6.444 9.436 6.54 8.98 6.732 8.58C6.924 8.18 7.188 7.872 7.524 7.656C7.86 7.432 8.24 7.32 8.664 7.32ZM8.46 10.968C8.684 10.968 8.872 10.844 9.024 10.596C9.184 10.348 9.264 9.988 9.264 9.516C9.264 9.148 9.196 8.872 9.06 8.688C8.932 8.496 8.776 8.4 8.592 8.4C8.352 8.4 8.152 8.524 7.992 8.772C7.84 9.012 7.764 9.372 7.764 9.852C7.764 10.236 7.828 10.52 7.956 10.704C8.092 10.88 8.26 10.968 8.46 10.968ZM15.3178 12.06C14.6058 12.06 13.9618 11.9 13.3858 11.58C12.8178 11.26 12.3658 10.792 12.0298 10.176C11.6938 9.552 11.5258 8.808 11.5258 7.944C11.5258 6.728 11.7458 5.656 12.1858 4.728C12.6338 3.8 13.2378 3.084 13.9978 2.58C14.7658 2.076 15.6138 1.824 16.5418 1.824C17.2538 1.824 17.8938 1.984 18.4618 2.304C19.0378 2.624 19.4938 3.096 19.8298 3.72C20.1658 4.336 20.3338 5.076 20.3338 5.94C20.3338 7.156 20.1098 8.228 19.6618 9.156C19.2218 10.084 18.6178 10.8 17.8498 11.304C17.0898 11.808 16.2458 12.06 15.3178 12.06ZM15.4378 10.644C16.0618 10.644 16.6098 10.452 17.0818 10.068C17.5618 9.684 17.9298 9.152 18.1858 8.472C18.4418 7.784 18.5698 7.008 18.5698 6.144C18.5698 5.192 18.3698 4.472 17.9698 3.984C17.5698 3.488 17.0538 3.24 16.4218 3.24C15.8058 3.24 15.2618 3.432 14.7898 3.816C14.3178 4.192 13.9498 4.724 13.6858 5.412C13.4218 6.092 13.2898 6.868 13.2898 7.74C13.2898 8.692 13.4898 9.416 13.8898 9.912C14.2898 10.4 14.8058 10.644 15.4378 10.644ZM29.6747 8.64C29.8987 8.64 30.0107 8.808 30.0107 9.144C30.0107 9.784 29.4987 10.104 28.4747 10.104C28.4347 10.104 28.2107 10.092 27.8027 10.068C27.8907 10.492 27.9587 10.976 28.0067 11.52C28.0627 12.056 28.0907 12.592 28.0907 13.128C28.0907 13.992 27.9427 14.652 27.6467 15.108C27.3587 15.564 26.9867 15.792 26.5307 15.792C25.9547 15.792 25.5427 15.384 25.2947 14.568C25.0547 13.752 24.9347 12.52 24.9347 10.872C24.9347 10.448 24.9467 10.02 24.9707 9.588C24.8987 9.596 24.7827 9.6 24.6227 9.6C24.4067 9.6 24.2307 9.604 24.0947 9.612C24.1747 10.204 24.2347 10.772 24.2747 11.316C24.3227 11.86 24.3467 12.464 24.3467 13.128C24.3467 13.992 24.1987 14.652 23.9027 15.108C23.6147 15.564 23.2427 15.792 22.7867 15.792C22.2107 15.792 21.7987 15.384 21.5507 14.568C21.3107 13.752 21.1907 12.52 21.1907 10.872C21.1907 9.328 21.3427 7.768 21.6467 6.192C21.9587 4.608 22.3907 3.3 22.9427 2.268C23.4947 1.236 24.1187 0.719999 24.8147 0.719999C25.1747 0.719999 25.4547 0.871999 25.6547 1.176C25.8627 1.472 25.9667 1.9 25.9667 2.46C25.9667 3.332 25.7307 4.304 25.2587 5.376C24.7947 6.44 23.9707 7.56 22.7867 8.736C22.7147 9.44 22.6787 10.124 22.6787 10.788C22.6787 11.612 22.7067 12.456 22.7627 13.32C22.8187 14.192 22.9107 14.628 23.0387 14.628C23.1587 14.628 23.2547 14.528 23.3267 14.328C23.3987 14.128 23.4347 13.812 23.4347 13.38C23.4347 12.596 23.4027 11.904 23.3387 11.304C23.2827 10.696 23.2147 10.208 23.1347 9.84C23.1187 9.784 23.1107 9.7 23.1107 9.588C23.1107 9.244 23.2467 8.96 23.5187 8.736C23.7987 8.512 24.1667 8.396 24.6227 8.388H24.9107H25.0787C25.2307 7.06 25.4787 5.812 25.8227 4.644C26.1747 3.468 26.5987 2.52 27.0947 1.8C27.5987 1.08 28.1387 0.719999 28.7147 0.719999C29.0907 0.719999 29.3827 0.887999 29.5907 1.224C29.8067 1.56 29.9147 2.012 29.9147 2.58C29.9147 3.284 29.7827 4.072 29.5187 4.944C29.2547 5.816 28.8627 6.636 28.3427 7.404C27.8307 8.164 27.2187 8.736 26.5067 9.12C26.4507 9.656 26.4227 10.212 26.4227 10.788C26.4227 11.612 26.4507 12.456 26.5067 13.32C26.5627 14.192 26.6547 14.628 26.7827 14.628C26.9027 14.628 26.9987 14.528 27.0707 14.328C27.1427 14.128 27.1787 13.812 27.1787 13.38C27.1787 12.756 27.1467 12.16 27.0827 11.592C27.0187 11.024 26.9507 10.56 26.8787 10.2C26.8627 10.136 26.8547 10.048 26.8547 9.936C26.8547 9.608 26.9667 9.332 27.1907 9.108C27.4147 8.876 27.6707 8.76 27.9587 8.76C28.2307 8.76 28.4787 8.752 28.7027 8.736C28.9347 8.712 29.0827 8.696 29.1467 8.688C29.4187 8.656 29.5947 8.64 29.6747 8.64ZM24.5627 1.908C24.4187 1.908 24.2467 2.152 24.0467 2.64C23.8547 3.128 23.6627 3.776 23.4707 4.584C23.2787 5.392 23.1147 6.252 22.9787 7.164C23.5867 6.444 24.0427 5.664 24.3467 4.824C24.6587 3.976 24.8147 3.208 24.8147 2.52C24.8147 2.32 24.7907 2.168 24.7427 2.064C24.6947 1.96 24.6347 1.908 24.5627 1.908ZM28.4627 1.908C28.3027 1.908 28.1067 2.188 27.8747 2.748C27.6507 3.308 27.4267 4.04 27.2027 4.944C26.9867 5.848 26.8067 6.784 26.6627 7.752C27.1187 7.392 27.5027 6.912 27.8147 6.312C28.1347 5.712 28.3707 5.084 28.5227 4.428C28.6827 3.772 28.7627 3.176 28.7627 2.64C28.7627 2.152 28.6627 1.908 28.4627 1.908Z" fill="white"/>
</svg>
