<svg width="54" height="16" viewBox="0 0 54 16" fill="none" xmlns="http://www.w3.org/2000/svg">
<rect width="54" height="16" fill="#1E1E1E"/>
<path d="M3.808 12.324C3.392 12.324 3.072 12.228 2.848 12.036C2.632 11.844 2.524 11.628 2.524 11.388C2.524 11.18 2.6 11 2.752 10.848C2.904 10.696 3.128 10.62 3.424 10.62C3.528 10.62 3.648 10.632 3.784 10.656C3.928 10.672 4.036 10.684 4.108 10.692C4.1 10.484 4.052 10.288 3.964 10.104C3.884 9.92 3.78 9.744 3.652 9.576C3.524 9.4 3.404 9.248 3.292 9.12C3.044 9.592 2.796 9.984 2.548 10.296C2.308 10.608 2.044 10.904 1.756 11.184C1.612 11.328 1.46 11.4 1.3 11.4C1.172 11.4 1.068 11.356 0.988 11.268C0.908 11.172 0.868 11.056 0.868 10.92C0.868 10.76 0.924 10.612 1.036 10.476L1.192 10.284C1.632 9.74 1.964 9.292 2.188 8.94C2.324 8.708 2.484 8.4 2.668 8.016C2.852 7.624 3.032 7.22 3.208 6.804C3.36 6.452 3.676 6.276 4.156 6.276C4.38 6.276 4.536 6.296 4.624 6.336C4.712 6.376 4.756 6.44 4.756 6.528C4.756 6.576 4.74 6.652 4.708 6.756C4.676 6.86 4.632 6.964 4.576 7.068C4.432 7.356 4.36 7.6 4.36 7.8C4.36 7.92 4.4 8.052 4.48 8.196C4.568 8.34 4.7 8.52 4.876 8.736C5.132 9.072 5.324 9.36 5.452 9.6C5.588 9.832 5.656 10.088 5.656 10.368C5.656 10.448 5.648 10.56 5.632 10.704C6.024 10.552 6.484 10.148 7.012 9.492C7.108 9.38 7.216 9.324 7.336 9.324C7.44 9.324 7.52 9.372 7.576 9.468C7.64 9.564 7.672 9.696 7.672 9.864C7.672 10.168 7.596 10.416 7.444 10.608C7.044 11.104 6.66 11.444 6.292 11.628C5.932 11.804 5.484 11.9 4.948 11.916C4.628 12.188 4.248 12.324 3.808 12.324ZM8.17309 12.06C7.67709 12.06 7.28109 11.88 6.98509 11.52C6.68909 11.16 6.54109 10.688 6.54109 10.104C6.54109 9.464 6.68909 8.86 6.98509 8.292C7.28109 7.716 7.67309 7.256 8.16109 6.912C8.65709 6.56 9.18109 6.384 9.73309 6.384C9.90909 6.384 10.0251 6.42 10.0811 6.492C10.1451 6.556 10.1971 6.676 10.2371 6.852C10.4051 6.82 10.5811 6.804 10.7651 6.804C11.1571 6.804 11.3531 6.944 11.3531 7.224C11.3531 7.392 11.2931 7.792 11.1731 8.424C10.9891 9.344 10.8971 9.984 10.8971 10.344C10.8971 10.464 10.9251 10.56 10.9811 10.632C11.0451 10.704 11.1251 10.74 11.2211 10.74C11.3731 10.74 11.5571 10.644 11.7731 10.452C11.9891 10.252 12.2811 9.932 12.6491 9.492C12.7451 9.38 12.8531 9.324 12.9731 9.324C13.0771 9.324 13.1571 9.372 13.2131 9.468C13.2771 9.564 13.3091 9.696 13.3091 9.864C13.3091 10.184 13.2331 10.432 13.0811 10.608C12.7531 11.016 12.4051 11.36 12.0371 11.64C11.6691 11.92 11.3131 12.06 10.9691 12.06C10.7051 12.06 10.4611 11.972 10.2371 11.796C10.0211 11.612 9.85709 11.364 9.74509 11.052C9.32909 11.724 8.80509 12.06 8.17309 12.06ZM8.60509 10.848C8.78109 10.848 8.94909 10.744 9.10909 10.536C9.26909 10.328 9.38509 10.052 9.45709 9.708L9.90109 7.5C9.56509 7.508 9.25309 7.636 8.96509 7.884C8.68509 8.124 8.46109 8.444 8.29309 8.844C8.12509 9.244 8.04109 9.668 8.04109 10.116C8.04109 10.364 8.08909 10.548 8.18509 10.668C8.28909 10.788 8.42909 10.848 8.60509 10.848ZM18.9938 9.324C19.0978 9.324 19.1778 9.372 19.2338 9.468C19.2978 9.564 19.3298 9.696 19.3298 9.864C19.3298 10.184 19.2538 10.432 19.1018 10.608C18.7338 11.032 18.3538 11.38 17.9618 11.652C17.5778 11.924 17.1378 12.06 16.6418 12.06C16.2338 12.06 15.9258 11.944 15.7178 11.712C15.5098 11.472 15.4058 11.128 15.4058 10.68C15.4058 10.456 15.4618 10.056 15.5738 9.48C15.6778 8.976 15.7298 8.628 15.7298 8.436C15.7298 8.308 15.6858 8.244 15.5978 8.244C15.4938 8.244 15.3458 8.38 15.1538 8.652C14.9618 8.916 14.7698 9.268 14.5778 9.708C14.3858 10.148 14.2298 10.612 14.1098 11.1C13.9578 11.74 13.5818 12.06 12.9818 12.06C12.7418 12.06 12.5818 11.976 12.5018 11.808C12.4298 11.632 12.3938 11.32 12.3938 10.872C12.3938 10.616 12.3978 10.412 12.4058 10.26L12.4178 9.3C12.4178 8.068 12.5418 6.784 12.7898 5.448C13.0458 4.112 13.4178 2.992 13.9058 2.088C14.4018 1.176 14.9938 0.719999 15.6818 0.719999C16.0498 0.719999 16.3458 0.879999 16.5698 1.2C16.8018 1.512 16.9178 1.92 16.9178 2.424C16.9178 3.232 16.6818 4.072 16.2098 4.944C15.7378 5.808 14.9698 6.82 13.9058 7.98C13.8818 8.396 13.8698 8.824 13.8698 9.264C14.1338 8.584 14.4258 8.032 14.7458 7.608C15.0738 7.176 15.3938 6.868 15.7058 6.684C16.0258 6.5 16.3178 6.408 16.5818 6.408C17.1018 6.408 17.3618 6.668 17.3618 7.188C17.3618 7.5 17.2738 8.064 17.0978 8.88C16.9458 9.576 16.8698 10.036 16.8698 10.26C16.8698 10.58 16.9858 10.74 17.2178 10.74C17.3778 10.74 17.5658 10.644 17.7818 10.452C18.0058 10.252 18.3018 9.932 18.6698 9.492C18.7658 9.38 18.8738 9.324 18.9938 9.324ZM15.4298 1.908C15.2858 1.908 15.1258 2.116 14.9498 2.532C14.7738 2.94 14.6018 3.496 14.4338 4.2C14.2738 4.896 14.1418 5.656 14.0378 6.48C14.5338 5.896 14.9418 5.26 15.2618 4.572C15.5898 3.884 15.7538 3.26 15.7538 2.7C15.7538 2.444 15.7258 2.248 15.6698 2.112C15.6138 1.976 15.5338 1.908 15.4298 1.908ZM19.2093 12.06C18.9053 12.06 18.6893 11.9 18.5613 11.58C18.4413 11.26 18.3813 10.748 18.3813 10.044C18.3813 9.004 18.5293 8.016 18.8253 7.08C18.8973 6.848 19.0133 6.68 19.1733 6.576C19.3413 6.464 19.5733 6.408 19.8693 6.408C20.0293 6.408 20.1413 6.428 20.2053 6.468C20.2693 6.508 20.3013 6.584 20.3013 6.696C20.3013 6.824 20.2413 7.112 20.1213 7.56C20.0413 7.88 19.9773 8.16 19.9293 8.4C19.8813 8.64 19.8413 8.936 19.8093 9.288C20.0733 8.6 20.3693 8.04 20.6973 7.608C21.0253 7.176 21.3453 6.868 21.6573 6.684C21.9773 6.5 22.2693 6.408 22.5333 6.408C23.0533 6.408 23.3133 6.668 23.3133 7.188C23.3133 7.292 23.2773 7.544 23.2053 7.944C23.1413 8.264 23.1093 8.464 23.1093 8.544C23.1093 8.824 23.2093 8.964 23.4093 8.964C23.6333 8.964 23.9213 8.788 24.2733 8.436C24.3773 8.332 24.4853 8.28 24.5973 8.28C24.7013 8.28 24.7813 8.328 24.8372 8.424C24.9013 8.512 24.9333 8.632 24.9333 8.784C24.9333 9.08 24.8533 9.312 24.6933 9.48C24.4693 9.712 24.2053 9.912 23.9013 10.08C23.6053 10.24 23.2893 10.32 22.9533 10.32C22.5293 10.32 22.2053 10.212 21.9813 9.996C21.7653 9.78 21.6573 9.488 21.6573 9.12C21.6573 9 21.6693 8.88 21.6933 8.76C21.7093 8.6 21.7173 8.492 21.7173 8.436C21.7173 8.308 21.6733 8.244 21.5853 8.244C21.4653 8.244 21.3053 8.38 21.1053 8.652C20.9133 8.916 20.7213 9.268 20.5293 9.708C20.3373 10.148 20.1813 10.612 20.0613 11.1C19.9733 11.476 19.8693 11.732 19.7493 11.868C19.6373 11.996 19.4573 12.06 19.2093 12.06ZM28.1142 9.684C28.2182 9.684 28.2982 9.732 28.3542 9.828C28.4182 9.924 28.4502 10.056 28.4502 10.224C28.4502 10.512 28.3822 10.76 28.2462 10.968C28.0222 11.312 27.7262 11.58 27.3582 11.772C26.9982 11.964 26.5662 12.06 26.0622 12.06C25.2942 12.06 24.6982 11.832 24.2742 11.376C23.8502 10.912 23.6382 10.288 23.6382 9.504C23.6382 8.952 23.7542 8.44 23.9862 7.968C24.2182 7.488 24.5382 7.108 24.9462 6.828C25.3622 6.548 25.8302 6.408 26.3502 6.408C26.8142 6.408 27.1862 6.548 27.4662 6.828C27.7462 7.1 27.8862 7.472 27.8862 7.944C27.8862 8.496 27.6862 8.972 27.2862 9.372C26.8942 9.764 26.2222 10.076 25.2702 10.308C25.4622 10.676 25.7862 10.86 26.2422 10.86C26.5702 10.86 26.8382 10.784 27.0462 10.632C27.2622 10.48 27.5102 10.224 27.7902 9.864C27.8862 9.744 27.9942 9.684 28.1142 9.684ZM26.1462 7.584C25.8502 7.584 25.5982 7.756 25.3902 8.1C25.1902 8.444 25.0902 8.86 25.0902 9.348V9.372C25.5622 9.26 25.9342 9.092 26.2062 8.868C26.4782 8.644 26.6142 8.384 26.6142 8.088C26.6142 7.936 26.5702 7.816 26.4822 7.728C26.4022 7.632 26.2902 7.584 26.1462 7.584Z" fill="white"/>
<path d="M36.5878 3.708C36.5878 3.892 36.5358 4.072 36.4318 4.248L32.0758 11.664C31.9238 11.92 31.7198 12.048 31.4638 12.048C31.2958 12.048 31.1478 11.984 31.0198 11.856C30.8918 11.728 30.8278 11.564 30.8278 11.364C30.8278 11.18 30.8918 10.976 31.0198 10.752L33.8878 5.856C33.4638 6.016 33.0398 6.104 32.6158 6.12C32.4638 6.608 32.2078 7 31.8478 7.296C31.4958 7.584 31.0998 7.728 30.6598 7.728C30.2598 7.728 29.9158 7.632 29.6278 7.44C29.3398 7.24 29.1238 6.98 28.9798 6.66C28.8358 6.34 28.7638 5.996 28.7638 5.628C28.7638 5.116 28.8598 4.664 29.0518 4.272C29.2518 3.872 29.5198 3.56 29.8558 3.336C30.1918 3.112 30.5678 3 30.9838 3C31.4958 3 31.9078 3.18 32.2198 3.54C32.5318 3.892 32.7118 4.324 32.7598 4.836C33.2958 4.804 33.7878 4.672 34.2358 4.44C34.6918 4.2 35.0358 3.896 35.2678 3.528C35.4838 3.176 35.7238 3 35.9878 3C36.1558 3 36.2958 3.068 36.4078 3.204C36.5278 3.34 36.5878 3.508 36.5878 3.708ZM30.7798 6.648C30.9478 6.648 31.0998 6.576 31.2358 6.432C31.3718 6.288 31.4678 6.076 31.5238 5.796C31.3478 5.636 31.2118 5.44 31.1158 5.208C31.0198 4.968 30.9718 4.732 30.9718 4.5C30.9718 4.372 30.9838 4.236 31.0078 4.092C30.9918 4.084 30.9598 4.08 30.9118 4.08C30.6718 4.08 30.4718 4.204 30.3118 4.452C30.1598 4.692 30.0838 5.052 30.0838 5.532C30.0838 5.9 30.1478 6.18 30.2758 6.372C30.4118 6.556 30.5798 6.648 30.7798 6.648ZM36.8398 7.32C37.2558 7.32 37.6078 7.42 37.8958 7.62C38.1838 7.812 38.3998 8.068 38.5438 8.388C38.6878 8.708 38.7598 9.052 38.7598 9.42C38.7598 9.924 38.6598 10.376 38.4598 10.776C38.2678 11.176 37.9998 11.488 37.6558 11.712C37.3198 11.936 36.9438 12.048 36.5278 12.048C36.1118 12.048 35.7598 11.952 35.4718 11.76C35.1918 11.56 34.9798 11.3 34.8358 10.98C34.6918 10.66 34.6198 10.316 34.6198 9.948C34.6198 9.436 34.7158 8.98 34.9078 8.58C35.0998 8.18 35.3638 7.872 35.6998 7.656C36.0358 7.432 36.4158 7.32 36.8398 7.32ZM36.6358 10.968C36.8598 10.968 37.0478 10.844 37.1998 10.596C37.3598 10.348 37.4398 9.988 37.4398 9.516C37.4398 9.148 37.3718 8.872 37.2358 8.688C37.1078 8.496 36.9518 8.4 36.7678 8.4C36.5278 8.4 36.3278 8.524 36.1678 8.772C36.0158 9.012 35.9398 9.372 35.9398 9.852C35.9398 10.236 36.0038 10.52 36.1318 10.704C36.2678 10.88 36.4358 10.968 36.6358 10.968ZM45.6296 8.316C45.7336 8.316 45.8136 8.368 45.8696 8.472C45.9256 8.576 45.9536 8.708 45.9536 8.868C45.9536 9.252 45.8376 9.48 45.6056 9.552C45.1256 9.72 44.5976 9.816 44.0216 9.84C43.8696 10.512 43.5696 11.052 43.1216 11.46C42.6736 11.86 42.1656 12.06 41.5976 12.06C41.1176 12.06 40.7056 11.944 40.3616 11.712C40.0256 11.48 39.7696 11.172 39.5936 10.788C39.4176 10.404 39.3296 9.988 39.3296 9.54C39.3296 8.932 39.4456 8.392 39.6776 7.92C39.9096 7.44 40.2296 7.068 40.6376 6.804C41.0456 6.532 41.4976 6.396 41.9936 6.396C42.6016 6.396 43.0896 6.608 43.4576 7.032C43.8336 7.448 44.0536 7.964 44.1176 8.58C44.4936 8.556 44.9416 8.476 45.4616 8.34C45.5256 8.324 45.5816 8.316 45.6296 8.316ZM41.6936 10.788C41.9496 10.788 42.1696 10.684 42.3536 10.476C42.5456 10.268 42.6736 9.968 42.7376 9.576C42.4896 9.408 42.2976 9.188 42.1616 8.916C42.0336 8.644 41.9696 8.356 41.9696 8.052C41.9696 7.924 41.9816 7.796 42.0056 7.668H41.9456C41.6256 7.668 41.3576 7.824 41.1416 8.136C40.9336 8.44 40.8296 8.872 40.8296 9.432C40.8296 9.872 40.9136 10.208 41.0816 10.44C41.2576 10.672 41.4616 10.788 41.6936 10.788ZM53.4677 8.64C53.6917 8.64 53.8037 8.808 53.8037 9.144C53.8037 9.784 53.2917 10.104 52.2677 10.104C52.2277 10.104 52.0037 10.092 51.5957 10.068C51.6837 10.492 51.7517 10.976 51.7997 11.52C51.8557 12.056 51.8837 12.592 51.8837 13.128C51.8837 13.992 51.7357 14.652 51.4397 15.108C51.1517 15.564 50.7797 15.792 50.3237 15.792C49.7477 15.792 49.3357 15.384 49.0877 14.568C48.8477 13.752 48.7277 12.52 48.7277 10.872C48.7277 10.448 48.7397 10.02 48.7637 9.588C48.6917 9.596 48.5757 9.6 48.4157 9.6C48.1997 9.6 48.0237 9.604 47.8877 9.612C47.9677 10.204 48.0277 10.772 48.0677 11.316C48.1157 11.86 48.1397 12.464 48.1397 13.128C48.1397 13.992 47.9917 14.652 47.6957 15.108C47.4077 15.564 47.0357 15.792 46.5797 15.792C46.0037 15.792 45.5917 15.384 45.3437 14.568C45.1037 13.752 44.9837 12.52 44.9837 10.872C44.9837 9.328 45.1357 7.768 45.4397 6.192C45.7517 4.608 46.1837 3.3 46.7357 2.268C47.2877 1.236 47.9117 0.719999 48.6077 0.719999C48.9677 0.719999 49.2477 0.871999 49.4477 1.176C49.6557 1.472 49.7597 1.9 49.7597 2.46C49.7597 3.332 49.5237 4.304 49.0517 5.376C48.5877 6.44 47.7637 7.56 46.5797 8.736C46.5077 9.44 46.4717 10.124 46.4717 10.788C46.4717 11.612 46.4997 12.456 46.5557 13.32C46.6117 14.192 46.7037 14.628 46.8317 14.628C46.9517 14.628 47.0477 14.528 47.1197 14.328C47.1917 14.128 47.2277 13.812 47.2277 13.38C47.2277 12.596 47.1957 11.904 47.1317 11.304C47.0757 10.696 47.0077 10.208 46.9277 9.84C46.9117 9.784 46.9037 9.7 46.9037 9.588C46.9037 9.244 47.0397 8.96 47.3117 8.736C47.5917 8.512 47.9597 8.396 48.4157 8.388H48.7037H48.8717C49.0237 7.06 49.2717 5.812 49.6157 4.644C49.9677 3.468 50.3917 2.52 50.8877 1.8C51.3917 1.08 51.9317 0.719999 52.5077 0.719999C52.8837 0.719999 53.1757 0.887999 53.3837 1.224C53.5997 1.56 53.7077 2.012 53.7077 2.58C53.7077 3.284 53.5757 4.072 53.3117 4.944C53.0477 5.816 52.6557 6.636 52.1357 7.404C51.6237 8.164 51.0117 8.736 50.2997 9.12C50.2437 9.656 50.2157 10.212 50.2157 10.788C50.2157 11.612 50.2437 12.456 50.2997 13.32C50.3557 14.192 50.4477 14.628 50.5757 14.628C50.6957 14.628 50.7917 14.528 50.8637 14.328C50.9357 14.128 50.9717 13.812 50.9717 13.38C50.9717 12.756 50.9397 12.16 50.8757 11.592C50.8117 11.024 50.7437 10.56 50.6717 10.2C50.6557 10.136 50.6477 10.048 50.6477 9.936C50.6477 9.608 50.7597 9.332 50.9837 9.108C51.2077 8.876 51.4637 8.76 51.7517 8.76C52.0237 8.76 52.2717 8.752 52.4957 8.736C52.7277 8.712 52.8757 8.696 52.9397 8.688C53.2117 8.656 53.3877 8.64 53.4677 8.64ZM48.3557 1.908C48.2117 1.908 48.0397 2.152 47.8397 2.64C47.6477 3.128 47.4557 3.776 47.2637 4.584C47.0717 5.392 46.9077 6.252 46.7717 7.164C47.3797 6.444 47.8357 5.664 48.1397 4.824C48.4517 3.976 48.6077 3.208 48.6077 2.52C48.6077 2.32 48.5837 2.168 48.5357 2.064C48.4877 1.96 48.4277 1.908 48.3557 1.908ZM52.2557 1.908C52.0957 1.908 51.8997 2.188 51.6677 2.748C51.4437 3.308 51.2197 4.04 50.9957 4.944C50.7797 5.848 50.5997 6.784 50.4557 7.752C50.9117 7.392 51.2957 6.912 51.6077 6.312C51.9277 5.712 52.1637 5.084 52.3157 4.428C52.4757 3.772 52.5557 3.176 52.5557 2.64C52.5557 2.152 52.4557 1.908 52.2557 1.908Z" fill="#FF0000"/>
</svg>
