<svg width="31" height="13" viewBox="0 0 31 13" fill="none" xmlns="http://www.w3.org/2000/svg">
<path d="M3.924 12.096C2.86 12.096 2.008 11.896 1.368 11.496C0.728 11.088 0.408 10.468 0.408 9.636C0.408 9.196 0.484 8.86 0.636 8.628C0.788 8.396 1.012 8.28 1.308 8.28C1.524 8.28 1.7 8.336 1.836 8.448C1.972 8.56 2.04 8.704 2.04 8.88C2.04 9.04 2.028 9.18 2.004 9.3C2.004 9.332 1.996 9.388 1.98 9.468C1.972 9.548 1.968 9.632 1.968 9.72C1.968 10.08 2.148 10.348 2.508 10.524C2.876 10.7 3.388 10.788 4.044 10.788C4.724 10.788 5.256 10.668 5.64 10.428C6.024 10.18 6.216 9.836 6.216 9.396C6.216 9.124 6.128 8.892 5.952 8.7C5.776 8.5 5.556 8.336 5.292 8.208C5.028 8.072 4.656 7.908 4.176 7.716C3.56 7.476 3.056 7.248 2.664 7.032C2.28 6.816 1.948 6.524 1.668 6.156C1.396 5.78 1.26 5.316 1.26 4.764C1.26 4.188 1.412 3.676 1.716 3.228C2.028 2.78 2.472 2.432 3.048 2.184C3.632 1.936 4.316 1.812 5.1 1.812C5.684 1.812 6.22 1.9 6.708 2.076C7.196 2.244 7.584 2.504 7.872 2.856C8.168 3.208 8.316 3.64 8.316 4.152C8.316 4.656 8.24 5.036 8.088 5.292C7.936 5.548 7.712 5.676 7.416 5.676C7.208 5.676 7.032 5.612 6.888 5.484C6.752 5.356 6.684 5.204 6.684 5.028C6.684 4.876 6.696 4.736 6.72 4.608C6.744 4.368 6.756 4.216 6.756 4.152C6.756 3.816 6.592 3.56 6.264 3.384C5.936 3.208 5.528 3.12 5.04 3.12C4.352 3.12 3.824 3.248 3.456 3.504C3.096 3.752 2.916 4.104 2.916 4.56C2.916 4.864 3.008 5.124 3.192 5.34C3.384 5.556 3.62 5.736 3.9 5.88C4.18 6.024 4.572 6.196 5.076 6.396C5.684 6.644 6.172 6.868 6.54 7.068C6.908 7.268 7.22 7.54 7.476 7.884C7.74 8.228 7.872 8.652 7.872 9.156C7.872 10.1 7.512 10.828 6.792 11.34C6.08 11.844 5.124 12.096 3.924 12.096ZM15.4391 9.324C15.5431 9.324 15.6231 9.372 15.6791 9.468C15.7431 9.564 15.7751 9.696 15.7751 9.864C15.7751 10.184 15.6991 10.432 15.5471 10.608C15.1791 11.032 14.7991 11.38 14.4071 11.652C14.0231 11.924 13.5831 12.06 13.0871 12.06C12.6791 12.06 12.3711 11.944 12.1631 11.712C11.9551 11.472 11.8511 11.128 11.8511 10.68C11.8511 10.456 11.9071 10.056 12.0191 9.48C12.1231 8.976 12.1751 8.628 12.1751 8.436C12.1751 8.308 12.1311 8.244 12.0431 8.244C11.9391 8.244 11.7911 8.38 11.5991 8.652C11.4071 8.916 11.2151 9.268 11.0231 9.708C10.8311 10.148 10.6751 10.612 10.5551 11.1C10.4031 11.74 10.0271 12.06 9.42713 12.06C9.18713 12.06 9.02713 11.976 8.94713 11.808C8.87513 11.632 8.83913 11.32 8.83913 10.872C8.83913 10.616 8.84313 10.412 8.85113 10.26L8.86313 9.3C8.86313 8.068 8.98713 6.784 9.23513 5.448C9.49113 4.112 9.86313 2.992 10.3511 2.088C10.8471 1.176 11.4391 0.719999 12.1271 0.719999C12.4951 0.719999 12.7911 0.879999 13.0151 1.2C13.2471 1.512 13.3631 1.92 13.3631 2.424C13.3631 3.232 13.1271 4.072 12.6551 4.944C12.1831 5.808 11.4151 6.82 10.3511 7.98C10.3271 8.396 10.3151 8.824 10.3151 9.264C10.5791 8.584 10.8711 8.032 11.1911 7.608C11.5191 7.176 11.8391 6.868 12.1511 6.684C12.4711 6.5 12.7631 6.408 13.0271 6.408C13.5471 6.408 13.8071 6.668 13.8071 7.188C13.8071 7.5 13.7191 8.064 13.5431 8.88C13.3911 9.576 13.3151 10.036 13.3151 10.26C13.3151 10.58 13.4311 10.74 13.6631 10.74C13.8231 10.74 14.0111 10.644 14.2271 10.452C14.4511 10.252 14.7471 9.932 15.1151 9.492C15.2111 9.38 15.3191 9.324 15.4391 9.324ZM11.8751 1.908C11.7311 1.908 11.5711 2.116 11.3951 2.532C11.2191 2.94 11.0471 3.496 10.8791 4.2C10.7191 4.896 10.5871 5.656 10.4831 6.48C10.9791 5.896 11.3871 5.26 11.7071 4.572C12.0351 3.884 12.1991 3.26 12.1991 2.7C12.1991 2.444 12.1711 2.248 12.1151 2.112C12.0591 1.976 11.9791 1.908 11.8751 1.908ZM16.2786 12.06C15.7826 12.06 15.3866 11.88 15.0906 11.52C14.7946 11.16 14.6466 10.688 14.6466 10.104C14.6466 9.464 14.7946 8.86 15.0906 8.292C15.3866 7.716 15.7786 7.256 16.2666 6.912C16.7626 6.56 17.2866 6.384 17.8386 6.384C18.0146 6.384 18.1306 6.42 18.1866 6.492C18.2506 6.556 18.3026 6.676 18.3426 6.852C18.5106 6.82 18.6866 6.804 18.8706 6.804C19.2626 6.804 19.4586 6.944 19.4586 7.224C19.4586 7.392 19.3986 7.792 19.2786 8.424C19.0946 9.344 19.0026 9.984 19.0026 10.344C19.0026 10.464 19.0306 10.56 19.0866 10.632C19.1506 10.704 19.2306 10.74 19.3266 10.74C19.4786 10.74 19.6626 10.644 19.8786 10.452C20.0946 10.252 20.3866 9.932 20.7546 9.492C20.8506 9.38 20.9586 9.324 21.0786 9.324C21.1826 9.324 21.2626 9.372 21.3186 9.468C21.3826 9.564 21.4146 9.696 21.4146 9.864C21.4146 10.184 21.3386 10.432 21.1866 10.608C20.8586 11.016 20.5106 11.36 20.1426 11.64C19.7746 11.92 19.4186 12.06 19.0746 12.06C18.8106 12.06 18.5666 11.972 18.3426 11.796C18.1266 11.612 17.9626 11.364 17.8506 11.052C17.4346 11.724 16.9106 12.06 16.2786 12.06ZM16.7106 10.848C16.8866 10.848 17.0546 10.744 17.2146 10.536C17.3746 10.328 17.4906 10.052 17.5626 9.708L18.0066 7.5C17.6706 7.508 17.3586 7.636 17.0706 7.884C16.7906 8.124 16.5666 8.444 16.3986 8.844C16.2306 9.244 16.1466 9.668 16.1466 10.116C16.1466 10.364 16.1946 10.548 16.2906 10.668C16.3946 10.788 16.5346 10.848 16.7106 10.848ZM21.2913 12.06C20.9873 12.06 20.7713 11.9 20.6433 11.58C20.5233 11.26 20.4633 10.748 20.4633 10.044C20.4633 9.004 20.6113 8.016 20.9073 7.08C20.9793 6.848 21.0953 6.68 21.2553 6.576C21.4233 6.464 21.6553 6.408 21.9513 6.408C22.1113 6.408 22.2233 6.428 22.2873 6.468C22.3513 6.508 22.3833 6.584 22.3833 6.696C22.3833 6.824 22.3233 7.112 22.2033 7.56C22.1233 7.88 22.0593 8.16 22.0113 8.4C21.9633 8.64 21.9233 8.936 21.8913 9.288C22.1553 8.6 22.4513 8.04 22.7793 7.608C23.1073 7.176 23.4273 6.868 23.7393 6.684C24.0593 6.5 24.3513 6.408 24.6153 6.408C25.1353 6.408 25.3953 6.668 25.3953 7.188C25.3953 7.292 25.3593 7.544 25.2873 7.944C25.2233 8.264 25.1913 8.464 25.1913 8.544C25.1913 8.824 25.2913 8.964 25.4913 8.964C25.7153 8.964 26.0033 8.788 26.3553 8.436C26.4593 8.332 26.5673 8.28 26.6793 8.28C26.7833 8.28 26.8633 8.328 26.9193 8.424C26.9833 8.512 27.0153 8.632 27.0153 8.784C27.0153 9.08 26.9353 9.312 26.7753 9.48C26.5513 9.712 26.2873 9.912 25.9833 10.08C25.6873 10.24 25.3713 10.32 25.0353 10.32C24.6113 10.32 24.2873 10.212 24.0633 9.996C23.8473 9.78 23.7393 9.488 23.7393 9.12C23.7393 9 23.7513 8.88 23.7753 8.76C23.7913 8.6 23.7993 8.492 23.7993 8.436C23.7993 8.308 23.7553 8.244 23.6673 8.244C23.5473 8.244 23.3873 8.38 23.1873 8.652C22.9953 8.916 22.8033 9.268 22.6113 9.708C22.4193 10.148 22.2633 10.612 22.1433 11.1C22.0553 11.476 21.9513 11.732 21.8313 11.868C21.7193 11.996 21.5393 12.06 21.2913 12.06ZM30.1962 9.684C30.3002 9.684 30.3802 9.732 30.4362 9.828C30.5002 9.924 30.5322 10.056 30.5322 10.224C30.5322 10.512 30.4642 10.76 30.3282 10.968C30.1042 11.312 29.8082 11.58 29.4402 11.772C29.0802 11.964 28.6482 12.06 28.1442 12.06C27.3762 12.06 26.7802 11.832 26.3562 11.376C25.9322 10.912 25.7202 10.288 25.7202 9.504C25.7202 8.952 25.8362 8.44 26.0682 7.968C26.3002 7.488 26.6202 7.108 27.0282 6.828C27.4442 6.548 27.9122 6.408 28.4322 6.408C28.8962 6.408 29.2682 6.548 29.5482 6.828C29.8282 7.1 29.9682 7.472 29.9682 7.944C29.9682 8.496 29.7682 8.972 29.3682 9.372C28.9762 9.764 28.3042 10.076 27.3522 10.308C27.5442 10.676 27.8682 10.86 28.3242 10.86C28.6522 10.86 28.9202 10.784 29.1282 10.632C29.3442 10.48 29.5922 10.224 29.8722 9.864C29.9682 9.744 30.0762 9.684 30.1962 9.684ZM28.2282 7.584C27.9322 7.584 27.6802 7.756 27.4722 8.1C27.2722 8.444 27.1722 8.86 27.1722 9.348V9.372C27.6442 9.26 28.0162 9.092 28.2882 8.868C28.5602 8.644 28.6962 8.384 28.6962 8.088C28.6962 7.936 28.6522 7.816 28.5642 7.728C28.4842 7.632 28.3722 7.584 28.2282 7.584Z" fill="white"/>
</svg>
